<?xml version="1.0" encoding="utf-8"?>
<!-- Generator: Adobe Illustrator 18.1.1, SVG Export Plug-In . SVG Version: 6.00 Build 0)  -->
<svg version="1.1" id="Layer_1" xmlns="http://www.w3.org/2000/svg" xmlns:xlink="http://www.w3.org/1999/xlink" x="0px" y="0px"
	 viewBox="0 0 705.7 120.7" enable-background="new 0 0 705.7 120.7" xml:space="preserve">
<g>
	<path fill="#005B7A" d="M1.6,90.5V5.3c0-2.5,1.5-4,4-4h17.9C36.8,1.3,45,11.3,45,24.5v47c0,13.1-8.5,23-21.6,23H5.6
		C3.1,94.5,1.6,93.1,1.6,90.5z M23.5,87.1c8.3,0,13.6-6.6,13.6-15.6v-47c0-9.1-5.2-15.8-13.6-15.8H9.6v78.4H23.5z"/>
	<path fill="#005B7A" d="M58.8,92.9V48.1c0-12.2,8.9-20.4,20.8-20.4h5.8c0.8,0,1.3,0.5,1.3,1.3v4.6c0,0.8-0.5,1.3-1.3,1.3h-5.8
		c-7.8,0-13.2,4.9-13.2,13.1v44.9c0,0.8-0.5,1.3-1.3,1.3h-4.9C59.3,94.2,58.8,93.7,58.8,92.9z"/>
	<path fill="#005B7A" d="M95.3,14.3c0-3,2.1-5.2,5.2-5.2c2.9,0,5.2,2.1,5.2,5.2c0,2.8-2.2,5.2-5.2,5.2
		C97.4,19.5,95.3,17.2,95.3,14.3z M96.8,92.9V29.4c0-0.8,0.5-1.3,1.3-1.3h4.9c0.8,0,1.3,0.5,1.3,1.3v63.5c0,0.8-0.5,1.3-1.3,1.3
		h-4.9C97.3,94.2,96.8,93.7,96.8,92.9z"/>
	<path fill="#005B7A" d="M119.5,92.9V47.5c0-11.9,7.9-20.8,19.7-20.8S159,35.6,159,47.5v45.4c0,0.8-0.5,1.3-1.3,1.3h-4.9
		c-0.8,0-1.3-0.5-1.3-1.3V47.5c0-8.1-4.6-13.6-12.2-13.6s-12.2,5.6-12.2,13.6v45.4c0,0.8-0.5,1.3-1.3,1.3h-4.9
		C120.1,94.2,119.5,93.7,119.5,92.9z"/>
	<path fill="#005B7A" d="M213.3,76.1v16.8c0,0.8-0.5,1.3-1.3,1.3H207c-0.8,0-1.3-0.5-1.3-1.3V76.1c0-7.7-5.4-12.6-13.2-12.6h-10.3
		v29.4c0,0.8-0.5,1.3-1.3,1.3h-4.9c-0.8,0-1.3-0.5-1.3-1.3v-90c0-0.8,0.5-1.3,1.3-1.3h4.9c0.8,0,1.3,0.5,1.3,1.3v53.3h9L206,29
		c0.4-0.7,0.9-0.9,1.6-0.9h5.6c0.9,0,1.6,0.7,1.1,1.6L199,57.2C207.4,59.6,213.3,66.7,213.3,76.1z"/>
	<path fill="#005B7A" d="M264,1.6c0.8,0,1.3,0.5,1.3,1.3v68.8c0,9.8,5.4,16.4,13.9,16.4s13.9-6.6,13.9-16.4V2.9
		c0-0.8,0.5-1.3,1.3-1.3h5.3c0.8,0,1.3,0.5,1.3,1.3v68.8c0,13.9-8.6,23.8-21.8,23.8c-13.2,0-21.8-9.9-21.8-23.8V2.9
		c0-0.8,0.5-1.3,1.3-1.3H264z"/>
	<path fill="#005B7A" d="M355.2,47.5v27.3c0,11.9-8.1,20.8-19.1,20.8c-6.4,0-10.7-2.6-13.9-6.6v30.4c0,0.8-0.5,1.3-1.3,1.3H316
		c-0.8,0-1.3-0.5-1.3-1.3V47.5c0-11.9,8.1-20.8,20.3-20.8C347.1,26.7,355.2,35.6,355.2,47.5z M347.6,47.5c0-7.9-4.8-13.5-12.7-13.5
		c-7.9,0-12.7,5.6-12.7,13.5v27.3c0,7.9,4.8,13.5,12.7,13.5c7.9,0,12.7-5.6,12.7-13.5V47.5z"/>
	<path fill="#F15623" d="M395.7,70.3V25.5c0-15.4,9.8-25.5,24.5-25.5c13.9,0,23,9.9,23.6,26.9c0,1.9-0.8,2.8-2.5,2.8h-14.3
		c-1.6,0-2.6-0.9-2.6-2.6c-0.1-6.1-1.9-8.7-4.6-8.7c-2.6,0-4.4,2.1-4.4,5.7v47.9c0,3.6,1.7,5.7,4.4,5.7c3,0,4.9-3.2,5.2-10.1
		c0.1-1.7,1.1-2.6,2.6-2.6h14.3c1.7,0,2.6,1.1,2.5,3c-0.7,17.6-9.5,27.9-24.1,27.9C405.5,95.8,395.7,85.6,395.7,70.3z"/>
	<path fill="#F15623" d="M449.9,10.5c0-5.7,4.1-9.9,9.9-9.9c5.6,0,9.9,4.2,9.9,9.9c0,5.3-4.4,9.9-9.9,9.9
		C454,20.4,449.9,16,449.9,10.5z M450.7,91.6V30.7c0-1.7,0.9-2.6,2.6-2.6h13c1.7,0,2.6,0.9,2.6,2.6v60.9c0,1.7-0.9,2.6-2.6,2.6h-13
		C451.7,94.2,450.7,93.3,450.7,91.6z"/>
	<path fill="#F15623" d="M477.9,91.6V49.4c0-13.8,8.9-22.9,22.2-22.9c13.4,0,22.2,9.1,22.2,22.9v42.2c0,1.7-0.9,2.6-2.6,2.6h-13
		c-1.7,0-2.6-0.9-2.6-2.6V48.2c0-2.8-1.5-4.5-4-4.5s-4,1.7-4,4.5v43.4c0,1.7-0.9,2.6-2.6,2.6h-13C478.8,94.2,477.9,93.3,477.9,91.6z
		"/>
	<path fill="#F15623" d="M530.5,72.9V48.6c0.4-13.4,9.3-22.1,22.5-22.1c12.8-0.3,22.6,8.6,22.6,22.1c0,12.6-9,20.9-22.2,20.9h-4.5
		v4.6c0,2.8,1.3,4.5,3.8,4.5c1.9,0,3-1.1,3.7-2.9c0.4-1.7,1.2-2.5,2.8-2.5h13.1c1.7,0,2.6,0.9,2.5,2.6c-1.1,12-9.8,20-22.4,20
		C539.4,95.8,530.5,86.7,530.5,72.9z M553.4,53.5c2.4,0,3.8-1.5,3.8-4.5c0-3.7-1.6-5.3-4.2-5.3s-4.1,1.7-4.1,4.5v5.3H553.4z"/>
	<path fill="#F15623" d="M651.8,49.4v42.2c0,1.7-0.9,2.6-2.6,2.6h-12.7c-1.7,0-2.6-0.9-2.6-2.6V48.2c0-2.8-1.3-4.5-3.7-4.5
		s-3.7,1.7-3.7,4.5v43.4c0,1.7-0.9,2.6-2.6,2.6H611c-1.7,0-2.6-0.9-2.6-2.6V48.2c0-2.8-1.3-4.5-3.7-4.5s-3.7,1.7-3.7,4.5v43.4
		c0,1.7-0.9,2.6-2.6,2.6h-12.7c-1.7,0-2.6-0.9-2.6-2.6V49.4c0-13.8,8.7-22.9,21.7-22.9c4.9,0,9.3,1.6,12.7,4.4
		c3.4-2.8,7.8-4.4,12.7-4.4C643.1,26.5,651.8,35.6,651.8,49.4z"/>
	<path fill="#F15623" d="M659.1,73.2c0-12,9-20.4,22.1-20.4h4.5v-4.6c0-2.8-1.3-4.5-3.8-4.5c-2.9,0-3.7,1.7-3.8,3.7
		c-0.1,1.6-0.9,1.9-2.6,1.9h-12.8c-1.7,0-2.6-0.9-2.5-2.6c1.1-12.2,9.7-20.1,22.1-20.1c13.1,0,21.8,9.1,21.8,22.9v24.8
		c0,13.1-7.8,21.7-21.6,21.7C668.3,95.8,659.1,86.7,659.1,73.2z M685.7,74.3v-5.7h-3.3c-3.2,0-4.9,1.7-4.9,4.6
		c0,3.3,1.7,5.3,4.6,5.3C684.5,78.5,685.7,76.9,685.7,74.3z"/>
</g>
</svg>
